<?xml version="1.0" standalone="no"?><!DOCTYPE svg PUBLIC "-//W3C//DTD SVG 1.1//EN" "http://www.w3.org/Graphics/SVG/1.1/DTD/svg11.dtd"><svg t="1581750627234" class="icon" viewBox="0 0 1024 1024" version="1.1" xmlns="http://www.w3.org/2000/svg" p-id="12049" xmlns:xlink="http://www.w3.org/1999/xlink" width="200" height="200"><defs><style type="text/css"></style></defs><path d="M470.016 110.592c-49.152 87.552-126.464 229.888-126.464 229.888s-141.824 27.648-232.96 45.056C65.536 392.704 51.2 432.64 73.728 460.8c64.512 77.312 177.664 204.8 177.664 204.8s-18.432 140.288-29.184 235.52c-4.608 48.64 31.232 69.632 71.168 50.688 76.8-37.888 193.024-96.256 219.648-109.056 0.512 0.512 1.536 0.512 2.048 1.024V64.512c-6.144-1.536-22.528 1.536-45.056 46.08z" fill="#FDB700" p-id="12050"></path><path d="M801.28 902.144c-10.24-95.744-28.672-236.032-28.672-236.032s112.64-127.488 176.128-205.312c22.528-28.16 8.192-68.096-36.352-75.264-90.112-17.408-230.4-45.056-230.4-45.056s-76.8-142.848-124.928-230.4c-17.408-32.256-30.208-42.496-38.4-45.568-0.512 0-1.536-0.512-3.072-1.024v779.776c29.696 15.36 141.312 72.192 215.04 109.056 39.936 19.968 75.264-1.024 70.656-50.176z" fill="#D9D9DD" p-id="12051"></path></svg>